<svg xmlns="http://www.w3.org/2000/svg" xmlns:xlink="http://www.w3.org/1999/xlink" width="554.618" height="120.449" viewBox="0 0 554.618 120.449">
  <defs>
    <linearGradient id="linear-gradient" x1="-0.021" y1="0.693" x2="4.4" y2="-0.661" gradientUnits="objectBoundingBox">
      <stop offset="0" stop-color="#1565c0"/>
      <stop offset="0.718" stop-color="#003c8f"/>
    </linearGradient>
    <linearGradient id="linear-gradient-2" x1="-15.932" y1="0.94" x2="22.252" y2="-0.082" xlink:href="#linear-gradient"/>
    <linearGradient id="linear-gradient-3" x1="-2.969" y1="1.076" x2="3.517" y2="0.062" xlink:href="#linear-gradient"/>
    <linearGradient id="linear-gradient-4" x1="-62.553" y1="10.415" x2="5.892" y2="-0.38" xlink:href="#linear-gradient"/>
    <linearGradient id="linear-gradient-5" x1="-47.062" y1="10.636" x2="3.601" y2="-0.161" xlink:href="#linear-gradient"/>
    <linearGradient id="linear-gradient-6" x1="-6.992" y1="1.599" x2="3.443" y2="0.126" xlink:href="#linear-gradient"/>
    <linearGradient id="linear-gradient-7" x1="-7.844" y1="3.239" x2="2.099" y2="-0.104" xlink:href="#linear-gradient"/>
    <linearGradient id="linear-gradient-8" x1="-7.668" y1="3.264" x2="2.275" y2="-0.021" xlink:href="#linear-gradient"/>
    <linearGradient id="linear-gradient-9" x1="-1.57" y1="0.928" x2="4.906" y2="-0.413" xlink:href="#linear-gradient"/>
  </defs>
  <g id="meldCX_Logo" data-name="meldCX Logo" transform="translate(-6564.555 -5301.743)">
    <path id="Path_7351" data-name="Path 7351" d="M6685.182,5321.69a36.846,36.846,0,0,0-26.281-10.429c-10.818,0-19.97,3.79-27.207,11.27l-1.4,1.439-1.393-1.439c-7.242-7.479-16.4-11.27-27.21-11.27a36.859,36.859,0,0,0-26.356,10.5,33.585,33.585,0,0,0-10.784,25.013v50.611a4.061,4.061,0,0,0,4.061,4.063h9.246a4.061,4.061,0,0,0,4.061-4.062v-48.22a21.174,21.174,0,0,1,5.861-15,18.915,18.915,0,0,1,27.9,0,21.155,21.155,0,0,1,5.863,15v48.22a4.065,4.065,0,0,0,4.064,4.063h9.383a4.061,4.061,0,0,0,4.061-4.062v-48.22a21.169,21.169,0,0,1,5.86-15,18.914,18.914,0,0,1,27.9,0,21.175,21.175,0,0,1,5.863,15v48.22a4.066,4.066,0,0,0,4.066,4.063h9.243a4.061,4.061,0,0,0,4.061-4.062v-50.611a33.57,33.57,0,0,0-10.787-25.013Z" transform="translate(0 19.813)" fill="url(#linear-gradient)"/>
    <rect id="Rectangle_4445" data-name="Rectangle 4445" width="15.221" height="119.521" rx="1.318" transform="translate(6808.633 5301.743)" fill="url(#linear-gradient-2)"/>
    <path id="Path_7352" data-name="Path 7352" d="M6742.188,5305.8a4.06,4.06,0,0,0-4.061-4.061h-7.1a4.059,4.059,0,0,0-4.061,4.061v36.49l-3.122-2.381a44.1,44.1,0,0,0-58.118,4.521,46.014,46.014,0,0,0-.006,64.384,44.177,44.177,0,0,0,63.33,0,44.3,44.3,0,0,0,13.139-32.19C6742.19,5376.189,6742.188,5305.8,6742.188,5305.8Zm-24.22,91.955-.013.014a28.786,28.786,0,0,1-41.218,0,30.75,30.75,0,0,1-.022-42.262,28.78,28.78,0,0,1,41.24-.022,30.528,30.528,0,0,1,.013,42.271Z" transform="translate(183.219 0.002)" fill="url(#linear-gradient-3)"/>
    <path id="Path_7353" data-name="Path 7353" d="M6740.956,5303.749h-3.123v-2.006h8.491v2.006h-3.141v9.308h-2.228Z" transform="translate(360.627 0)" fill="url(#linear-gradient-4)"/>
    <path id="Path_7354" data-name="Path 7354" d="M6752.3,5301.742v11.312h-2.219v-7.026h-.03l-2.755,4.877h-1.451l-2.757-4.877h-.033v7.026h-2.228v-11.312h2.261l3.474,6.434h.033l3.456-6.434Z" transform="translate(366.869 0.002)" fill="url(#linear-gradient-5)"/>
    <path id="Path_7355" data-name="Path 7355" d="M6716.977,5305.172l-.158.073a42.234,42.234,0,0,0-19.523,19.026l-.146.308a48.017,48.017,0,0,0-4.312,18.622,51.05,51.05,0,0,0,2.876,15.553l.068.188a47.318,47.318,0,0,0,6.62,11.345l.254.3c8.547,9.344,18.426,14.077,29.364,14.077h12.451a4.06,4.06,0,0,0,4.061-4.061v-6.738a4.06,4.06,0,0,0-4.061-4.063h-9.892c-5.908,0-7.783-.718-8.22-.935l-.431-.222-.907-.246c-2.407-.477-5.383-2.182-8.8-5.013-5.914-6.058-8.787-12.551-8.787-19.849a27.626,27.626,0,0,1,4.552-15.183c5.619-7.678,12.536-11.41,21.153-11.41h11.331a4.062,4.062,0,0,0,4.061-4.063V5305.8a4.06,4.06,0,0,0-4.061-4.061H6733.62a41.629,41.629,0,0,0-16.643,3.43" transform="translate(266.989 0.002)" fill="url(#linear-gradient-6)"/>
    <path id="Path_7356" data-name="Path 7356" d="M6771.964,5310.384a3.668,3.668,0,0,0,.74-2.431c0-.1.03-.2.03-.3,0-3.267-2.93-5.913-6.544-5.913a7,7,0,0,0-3.4.884l0-.019-.056.045a6.277,6.277,0,0,0-1.633,1.328l-.915.743a3.831,3.831,0,0,0-1.175.8l-.733.751h0l-12.084,12.362a3.756,3.756,0,0,1-5.374,0L6728,5305.523l-2.224-1.745a6.508,6.508,0,0,0-1.421-1.112l-.076-.059-.01.016a7.022,7.022,0,0,0-3.4-.881c-3.613,0-6.544,2.646-6.544,5.913v.006a3.7,3.7,0,0,0,1.017,3.135,6.139,6.139,0,0,0,1.275,1.32l24.191,25.011a3.755,3.755,0,0,0,5.4,0l24.072-24.888A6.019,6.019,0,0,0,6771.964,5310.384Z" transform="translate(311.614 0.002)" fill="url(#linear-gradient-7)"/>
    <path id="Path_7357" data-name="Path 7357" d="M6771.68,5344.551a6.307,6.307,0,0,0-1.277-1.346l-24.191-25.447a3.706,3.706,0,0,0-5.4,0l-24.07,25.32a6.169,6.169,0,0,0-1.689,1.891,3.778,3.778,0,0,0-.735,2.469c-.006.1-.035.2-.035.309a6.3,6.3,0,0,0,6.544,6.013,6.91,6.91,0,0,0,3.409-.9l0,.02.053-.043a6.5,6.5,0,0,0,1.637-1.353l.913-.758a3.7,3.7,0,0,0,1.171-.811l12.822-13.343a3.71,3.71,0,0,1,5.373,0l12.82,13.343,2.225,1.771a6.315,6.315,0,0,0,1.422,1.135l.073.059.009-.017a6.923,6.923,0,0,0,3.4.9,6.3,6.3,0,0,0,6.548-6.013l0-.01A3.8,3.8,0,0,0,6771.68,5344.551Z" transform="translate(311.609 30.902)" fill="url(#linear-gradient-8)"/>
    <path id="Path_7358" data-name="Path 7358" d="M6655.7,5311.259a42.949,42.949,0,0,0-31.659,13.368,46.015,46.015,0,0,0-.006,64.384,42.931,42.931,0,0,0,31.665,13.372,44.908,44.908,0,0,0,20.645-5.166,4.057,4.057,0,0,0,.9-6.539l-5.683-5.409a4.146,4.146,0,0,0-4.479-.718,29.823,29.823,0,0,1-11.381,2.105,27.874,27.874,0,0,1-27.316-21.322l-.62-2.421h68.819a4.061,4.061,0,0,0,4.063-4.116c-.074-7.266-1.722-22.675-13.276-34.165C6678.525,5315.836,6667.944,5311.259,6655.7,5311.259Zm-28.22,37.7.962-2.613a29.53,29.53,0,0,1,10.481-13.915,28.6,28.6,0,0,1,33.556-.007,29.6,29.6,0,0,1,10.483,13.921l.965,2.613Z" transform="translate(96.462 19.808)" fill="url(#linear-gradient-9)"/>
  </g>
</svg>
